<?xml version="1.0" encoding="UTF-8"?><svg id="Layer_2" xmlns="http://www.w3.org/2000/svg" width="89.55" height="114.37" viewBox="0 0 89.55 114.37"><defs><style>.cls-1{fill:#a06432;}.cls-1,.cls-2,.cls-3,.cls-4,.cls-5,.cls-6,.cls-7,.cls-8,.cls-9,.cls-10,.cls-11{stroke-width:0px;}.cls-2{fill:#d39557;}.cls-3{fill:#725031;}.cls-5{fill:red;}.cls-6{fill:#fff;}.cls-7{fill:#ff7300;}.cls-8{fill:#35220d;}.cls-9{fill:#231f20;}.cls-10{fill:#ad7d51;}.cls-11{fill:#f4c48c;}</style></defs><g id="codiny"><path class="cls-6" d="m64.61,86.24v15.83s2.44,2.96,1.46,6.3c-.65,2.21-3.42,4.15-10.6,3.9-9.3-.32-9.1-2.89-9.1-9.53v-16.51c0-5.03,4.08-9.12,9.12-9.12h0c5.03,0,9.12,4.08,9.12,9.12Z"/><path class="cls-4" d="m56.69,112.87c-.39,0-.8,0-1.23-.02-9.66-.33-9.66-3.27-9.66-9.7v-16.92c0-5.34,4.35-9.69,9.69-9.69s9.69,4.35,9.69,9.69v15.64c.53.71,2.36,3.5,1.44,6.66-.59,2.01-2.81,4.34-9.94,4.34Zm-1.19-35.17c-4.71,0-8.54,3.83-8.54,8.54v16.92c0,6.33,0,8.25,8.54,8.54,5.75.2,9.31-1.04,10.02-3.49.88-3-1.33-5.75-1.36-5.77-.08-.1-.13-.23-.13-.37v-15.83c0-4.71-3.83-8.54-8.54-8.54Z"/><path class="cls-6" d="m25.01,86.24v15.83s-2.44,2.96-1.46,6.3c.65,2.21,3.42,4.15,10.6,3.9,9.3-.32,9.1-2.89,9.1-9.53v-16.51c0-5.03-4.08-9.12-9.12-9.12h0c-5.03,0-9.12,4.08-9.12,9.12Z"/><path class="cls-4" d="m32.93,112.87c-7.13,0-9.35-2.33-9.94-4.34-.92-3.16.91-5.95,1.44-6.66v-15.64c0-5.34,4.35-9.69,9.69-9.69s9.69,4.35,9.69,9.69v16.92c0,6.43,0,9.36-9.66,9.7-.43.01-.84.02-1.23.02Zm1.19-35.17c-4.71,0-8.54,3.83-8.54,8.54v15.83c0,.13-.05.26-.13.37-.02.03-2.23,2.78-1.35,5.77.71,2.45,4.28,3.68,10.02,3.49,8.55-.3,8.55-2.21,8.54-8.54v-16.92c0-4.71-3.83-8.54-8.54-8.54Zm-9.12,24.37h0,0Z"/><path class="cls-11" d="m34.16,76.67h0c-5.26,0-9.52,4.26-9.52,9.52v12.04c2.89.84,10.23,2.52,19.04,1.1v-13.15c0-5.26-4.26-9.52-9.52-9.52Z"/><path class="cls-2" d="m37.24,96.48c-7.32,0-12.6-1.1-12.66-1.12-.18-.04-.29-.21-.25-.39s.21-.29.39-.25c.08.02,8.57,1.79,18.94.81.18-.02.34.12.36.3.02.18-.12.34-.3.36-2.27.22-4.45.3-6.47.3Z"/><path class="cls-2" d="m41.7,91.39c-9.2,0-17.01-.82-17.09-.83-.18-.02-.31-.18-.29-.36.02-.18.18-.31.36-.29.09,0,9,.94,19,.81h0c.18,0,.33.14.33.33,0,.18-.14.33-.33.33-.67,0-1.33.01-1.99.01Z"/><path class="cls-2" d="m43.34,85.68s0,0,0,0l-18.3-.55c-.18,0-.33-.16-.32-.34,0-.18.15-.33.34-.32l18.3.55c.18,0,.33.16.32.34,0,.18-.15.32-.33.32Z"/><path class="cls-2" d="m41.55,80.53s-.02,0-.02,0c-5.53-.39-14.31-.42-14.4-.42-.18,0-.33-.15-.33-.33,0-.18.15-.33.33-.33h0c.09,0,8.89.03,14.45.42.18.01.32.17.31.35-.01.17-.16.31-.33.31Z"/><path class="cls-2" d="m39.84,100.11c-.18,0-.33-.15-.33-.33v-21.23c0-.18.15-.33.33-.33s.33.15.33.33v21.23c0,.18-.15.33-.33.33Z"/><path class="cls-2" d="m33.55,100.1c-.18,0-.33-.15-.33-.33v-23.1c0-.18.15-.33.33-.33s.33.15.33.33v23.1c0,.18-.15.33-.33.33Z"/><path class="cls-2" d="m27.72,99.32c-.18,0-.33-.15-.33-.33v-19.8c0-.18.15-.33.33-.33s.33.15.33.33v19.8c0,.18-.15.33-.33.33Z"/><path class="cls-4" d="m36.76,100.46c-5.74,0-10.25-1.08-12.28-1.67-.25-.07-.42-.3-.42-.55v-12.04c0-5.57,4.53-10.1,10.1-10.1s10.1,4.53,10.1,10.1v13.15c0,.28-.21.53-.49.57-2.47.4-4.83.55-7.01.55Zm6.91-1.12h0,0Zm-18.46-1.54c2.95.81,9.76,2.25,17.88,1.05v-12.65c0-4.93-4.01-8.94-8.94-8.94s-8.94,4.01-8.94,8.94v11.61Z"/><path class="cls-11" d="m55.45,76.67h0c5.26,0,9.52,4.26,9.52,9.52v12.04c-2.89.84-10.23,2.52-19.04,1.1v-13.15c0-5.26,4.26-9.52,9.52-9.52Z"/><path class="cls-2" d="m52.38,96.48c-2.02,0-4.2-.08-6.47-.3-.18-.02-.31-.18-.3-.36s.18-.31.36-.3c10.37.98,18.85-.79,18.94-.81.18-.04.35.08.39.25.04.18-.08.35-.25.39-.07.01-5.35,1.12-12.66,1.12Z"/><path class="cls-2" d="m47.92,91.39c-.66,0-1.32,0-1.99-.01-.18,0-.33-.15-.33-.33,0-.18.17-.33.33-.33,9.99.13,18.91-.8,19-.81.18-.02.34.11.36.29.02.18-.11.34-.29.36-.08,0-7.89.83-17.09.83Z"/><path class="cls-2" d="m46.28,85.68c-.18,0-.32-.14-.33-.32,0-.18.14-.33.32-.34l18.3-.55c.18,0,.33.14.34.32,0,.18-.14.33-.32.34l-18.3.55s0,0,0,0Z"/><path class="cls-2" d="m48.07,80.53c-.17,0-.32-.13-.33-.31-.01-.18.12-.34.31-.35,5.55-.39,14.36-.42,14.44-.42h0c.18,0,.33.15.33.33,0,.18-.15.33-.33.33-.09,0-8.87.03-14.4.42,0,0-.02,0-.02,0Z"/><path class="cls-2" d="m49.78,100.11c-.18,0-.33-.15-.33-.33v-21.23c0-.18.15-.33.33-.33s.33.15.33.33v21.23c0,.18-.15.33-.33.33Z"/><path class="cls-2" d="m56.06,100.1c-.18,0-.33-.15-.33-.33v-23.1c0-.18.15-.33.33-.33s.33.15.33.33v23.1c0,.18-.15.33-.33.33Z"/><path class="cls-2" d="m61.9,99.32c-.18,0-.33-.15-.33-.33v-19.8c0-.18.15-.33.33-.33s.33.15.33.33v19.8c0,.18-.15.33-.33.33Z"/><path class="cls-4" d="m52.85,100.46c-2.18,0-4.54-.16-7.01-.55-.28-.04-.49-.29-.49-.57v-13.15c0-5.57,4.53-10.1,10.1-10.1s10.1,4.53,10.1,10.1v12.04c0,.26-.17.48-.42.55-2.04.59-6.54,1.67-12.28,1.67Zm-6.34-1.62c8.12,1.2,14.93-.23,17.88-1.05v-11.61c0-4.93-4.01-8.94-8.94-8.94h0c-4.93,0-8.94,4.01-8.94,8.94v12.65Zm18.46-.61h0,0Z"/><path class="cls-8" d="m43.52,103.14c-3.05,1.04-6.62,1.01-9.36,1.03-.02-.02-4.69-4.49-9.92-1.77-4.42,2.3-3.85,10,1.25,10.93,4.59.83,14.08.82,16.67-2.19,0,0,0,0,.01-.01,1.62-1.56,1.35-7.98,1.35-7.98Z"/><path class="cls-4" d="m31.5,114.37c-2.35,0-4.56-.2-6.1-.48-2.44-.44-4.21-2.39-4.62-5.07-.37-2.43.48-5.52,3.2-6.94,4.96-2.58,9.46.9,10.4,1.71h.25c2.64-.02,5.92-.04,8.71-.99.17-.06.36-.03.51.07.15.1.24.27.25.45.03.68.22,6.68-1.51,8.4-1.88,2.16-6.72,2.86-11.1,2.86Zm-3.75-12.27c-1.02,0-2.12.22-3.23.81-2.22,1.16-2.9,3.72-2.6,5.74.34,2.22,1.71,3.75,3.68,4.11,5.08.92,13.89.61,16.12-2,.01-.01.04-.04.05-.05.94-.91,1.22-4.37,1.19-6.79-2.78.79-5.84.81-8.33.82h-.47s0,0,0,0c-.14,0-.28-.05-.38-.15-.15-.14-2.71-2.5-6.03-2.5Z"/><path class="cls-8" d="m23.61,105.37s3.94-1.28,6.94,1.03"/><path class="cls-4" d="m30.55,106.81c-.09,0-.18-.03-.25-.09-2.79-2.15-6.52-.98-6.56-.97-.22.07-.45-.05-.52-.27-.07-.22.05-.45.26-.52.17-.06,4.18-1.32,7.32,1.1.18.14.21.4.08.58-.08.11-.2.16-.33.16Z"/><circle class="cls-4" cx="30.55" cy="106.62" r="1.03"/><circle class="cls-4" cx="23.83" cy="105.37" r=".99"/><path class="cls-8" d="m46.02,103.14c3.05,1.04,6.62,1.01,9.36,1.03.02-.02,4.69-4.49,9.92-1.77,4.42,2.3,3.85,10-1.25,10.93-4.59.83-14.08.82-16.67-2.19,0,0,0,0-.01-.01-1.62-1.56-1.35-7.98-1.35-7.98Z"/><path class="cls-4" d="m58.04,114.37c-4.38,0-9.24-.7-11.09-2.86,0,0,0,0,0,0-1.72-1.73-1.53-7.71-1.5-8.39,0-.18.1-.35.25-.45.15-.1.34-.13.51-.07,2.79.96,6.07.98,8.71.99h.25c.92-.79,5.44-4.29,10.4-1.7,2.72,1.42,3.57,4.51,3.2,6.94-.41,2.69-2.18,4.63-4.62,5.07-1.55.28-3.76.48-6.11.48Zm-11.46-10.45c-.02,2.42.26,5.88,1.19,6.79.01.01.03.03.04.05,0,0,.02.02.02.03,2.22,2.58,11.02,2.9,16.11,1.98,1.97-.36,3.35-1.9,3.68-4.11.31-2.02-.38-4.58-2.6-5.74-4.74-2.47-9.07,1.51-9.25,1.68-.11.1-.25.16-.4.16h-.47c-2.5-.02-5.55-.04-8.33-.82Z"/><path class="cls-8" d="m65.94,105.37s-3.94-1.28-6.94,1.03"/><path class="cls-4" d="m59,106.81c.09,0,.18-.03.25-.09,2.79-2.15,6.52-.98,6.56-.97.22.07.45-.05.52-.27.07-.22-.05-.45-.26-.52-.17-.06-4.18-1.32-7.32,1.1-.18.14-.21.4-.08.58.08.11.2.16.33.16Z"/><circle class="cls-4" cx="59" cy="106.62" r="1.03"/><circle class="cls-4" cx="65.72" cy="105.37" r=".99"/><path class="cls-6" d="m6.52,96.46c-5.09-.72-6.26-5.21-5.88-9,1.04-10.29,4.98-19.84,9.8-25.96,2.88-3.66,8-3.8,10.78-1.21,2.81,2.62,2.58,7.11.42,10.09-3.09,4.27-5.94,11.03-6.61,19.23-.33,4.01-3.62,7.54-8.51,6.85Z"/><path class="cls-4" d="m7.75,97.13c-.43,0-.86-.03-1.31-.09-5.34-.76-6.79-5.47-6.37-9.63.99-9.81,4.7-19.63,9.92-26.26,1.47-1.87,3.56-2.99,5.9-3.17,2.17-.17,4.26.52,5.73,1.9,3.12,2.91,2.7,7.8.5,10.85-3.55,4.91-5.92,11.81-6.5,18.94-.19,2.31-1.29,4.43-3.02,5.81-1.37,1.1-3.03,1.66-4.84,1.66Zm-1.14-1.24c2,.28,3.82-.17,5.27-1.33,1.48-1.18,2.42-3.01,2.59-5,.6-7.33,3.05-14.45,6.72-19.52,1.91-2.64,2.3-6.86-.35-9.33-1.24-1.15-3.01-1.73-4.86-1.59-2.01.15-3.81,1.13-5.08,2.73-5.09,6.46-8.7,16.06-9.67,25.66-.18,1.76-.32,7.56,5.39,8.37h0Z"/><path class="cls-6" d="m83.02,96.46c5.09-.72,6.26-5.21,5.88-9-1.04-10.29-4.98-19.84-9.8-25.96-2.88-3.66-8-3.8-10.78-1.21-2.81,2.62-2.58,7.11-.42,10.09,3.09,4.27,5.94,11.03,6.61,19.23.33,4.01,3.62,7.54,8.51,6.85Z"/><path class="cls-4" d="m81.8,97.13c-1.81,0-3.47-.56-4.84-1.66-1.73-1.38-2.83-3.5-3.02-5.81-.58-7.12-2.95-14.03-6.5-18.94-2.21-3.05-2.62-7.94.5-10.85,1.47-1.37,3.56-2.07,5.73-1.9,2.33.18,4.43,1.31,5.9,3.17,5.22,6.63,8.92,16.44,9.92,26.26.42,4.16-1.03,8.87-6.37,9.63h0c-.44.06-.88.09-1.31.09Zm1.23-.67h0,0Zm-9.99-37.36c-1.65,0-3.19.57-4.31,1.61-2.65,2.47-2.26,6.69-.35,9.33,3.67,5.08,6.12,12.19,6.72,19.52.16,1.99,1.1,3.82,2.59,5,1.44,1.15,3.26,1.61,5.27,1.33h0c5.7-.81,5.56-6.61,5.39-8.37-.97-9.61-4.59-19.2-9.67-25.66-1.27-1.61-3.07-2.58-5.08-2.73-.18-.01-.37-.02-.55-.02Z"/><path class="cls-11" d="m69.03,26.31s5.35,1.35.8-6.53c-4.54-7.88-15.31-11.2-24.95-10.12s24.15,16.64,24.15,16.64Z"/><path class="cls-4" d="m69.81,26.98c-.5,0-.89-.1-.93-.1-.03,0-.07-.02-.1-.04-.07-.03-6.7-3.09-13.18-6.55-13.44-7.17-13.14-9.02-13.02-9.81.19-1.16,1.72-1.33,2.23-1.39,9.13-1.02,20.55,1.8,25.52,10.4,1.89,3.28,2.37,5.45,1.47,6.64-.52.68-1.35.84-1.99.84Zm-.6-1.21c.23.05,1.26.21,1.67-.32.26-.35.64-1.57-1.55-5.36-4.7-8.15-15.63-10.81-24.39-9.83-.96.11-1.2.34-1.22.42-.05.3.32,2.14,12.42,8.6,6.13,3.27,12.4,6.19,13.06,6.49Z"/><path class="cls-11" d="m20.73,26.31s-5.35,1.35-.8-6.53,15.31-11.2,24.95-10.12-24.15,16.64-24.15,16.64Z"/><path class="cls-4" d="m19.95,26.98c-.64,0-1.47-.15-1.99-.84-.9-1.19-.42-3.36,1.47-6.64,4.96-8.6,16.39-11.42,25.52-10.4.5.06,2.04.23,2.23,1.39.13.79.43,2.63-13.02,9.81-6.48,3.46-13.11,6.52-13.18,6.55-.03.01-.07.03-.1.04-.04,0-.42.1-.93.1Zm.79-.66h0,0Zm20.58-16.26c-7.99,0-16.79,2.94-20.88,10.03-2.19,3.79-1.81,5.02-1.55,5.36.4.53,1.44.37,1.67.32.66-.31,6.94-3.22,13.07-6.5,12.1-6.46,12.47-8.3,12.42-8.6-.01-.08-.26-.32-1.22-.42-1.14-.13-2.31-.19-3.5-.19Z"/><path class="cls-3" d="m24.83,16.18c-4.63,4.67-4.71,10.14-4.71,10.14h11.5c-1.91-5.83-4.93-8.79-6.78-10.14Z"/><path class="cls-4" d="m31.61,26.89h-11.5c-.15,0-.3-.06-.41-.17-.11-.11-.17-.26-.17-.41,0-.23.14-5.76,4.88-10.53.2-.2.52-.23.75-.06,1.75,1.27,4.99,4.31,6.99,10.42.06.18.03.37-.08.52s-.28.24-.47.24Zm-10.87-1.15h10.06c-1.75-4.87-4.3-7.51-5.91-8.79-3.24,3.47-3.98,7.34-4.15,8.79Z"/><path class="cls-10" d="m64.69,16.39c-3.5-3.56-9.27-6.72-19.81-6.72s-16.6,3.03-20.05,6.51c1.85,1.34,4.87,4.3,6.78,10.14h26.58c1.82-5.55,4.64-8.5,6.5-9.93Z"/><path class="cls-4" d="m58.19,26.89h-26.58c-.25,0-.47-.16-.55-.4-1.9-5.8-4.93-8.66-6.57-9.85-.14-.1-.22-.25-.24-.42s.05-.33.17-.45c3.02-3.05,9.02-6.68,20.46-6.68,9.05,0,15.66,2.25,20.22,6.89.12.12.18.28.16.45-.01.17-.09.32-.22.42-1.91,1.47-4.56,4.34-6.3,9.65-.08.24-.3.4-.55.4Zm-26.17-1.15h25.75c1.68-4.89,4.12-7.77,6.05-9.39-4.32-4.1-10.52-6.1-18.94-6.1-10.46,0-16.16,3.1-19.17,5.88,1.78,1.43,4.5,4.34,6.31,9.61Z"/><path class="cls-3" d="m64.69,16.39c-1.86,1.43-4.68,4.38-6.5,9.93h11.26s-.22-5.31-4.76-9.93Z"/><path class="cls-4" d="m69.45,26.89h-11.26c-.19,0-.36-.09-.47-.24s-.14-.34-.08-.52c1.83-5.59,4.65-8.64,6.7-10.2.23-.18.56-.15.76.05,4.65,4.72,4.92,10.08,4.93,10.31,0,.16-.05.31-.16.42-.11.11-.26.18-.42.18Zm-10.45-1.15h9.81c-.2-1.43-1.02-5.16-4.17-8.57-1.77,1.47-4.03,4.09-5.64,8.57Z"/><path class="cls-4" d="m44.88,26.89c-.32,0-.58-.26-.58-.58V9.67c0-.32.26-.58.58-.58s.58.26.58.58v16.64c0,.32-.26.58-.58.58Z"/><path class="cls-11" d="m44.88,9.67s.1-4.3,3.66-5.3c0,0,1.31.91,1.53,2.19,0,0-2.95,1.32-5.19,3.11Z"/><path class="cls-4" d="m44.88,10.25c-.09,0-.17-.02-.26-.06-.2-.1-.33-.31-.32-.53,0-.19.15-4.74,4.08-5.84.17-.05.34-.02.48.08.06.04,1.52,1.06,1.77,2.57.04.26-.09.52-.33.62-.03.01-2.91,1.31-5.07,3.04-.1.08-.23.13-.36.13Zm3.54-5.24c-1.76.63-2.48,2.22-2.77,3.37,1.48-1.01,2.99-1.78,3.73-2.14-.23-.55-.69-1-.96-1.23Z"/><path class="cls-11" d="m45.38,9.67s-2.04-2.48-2.29-5.8c0,0-1.63.43-3.25.31,0,0,1.1,4.79,5.54,5.49Z"/><path class="cls-4" d="m45.38,10.25s-.06,0-.09,0c-4.77-.75-5.97-5.72-6.02-5.93-.04-.18,0-.37.13-.51.12-.14.3-.21.48-.2,1.5.12,3.04-.29,3.06-.29.17-.04.34-.01.48.09.14.1.23.26.24.43.23,3.09,2.14,5.45,2.16,5.47.15.19.17.45.05.65-.1.18-.3.29-.5.29Zm-4.75-5.47c.4,1.06,1.37,2.98,3.4,3.89-.55-.97-1.2-2.41-1.44-4.1-.48.09-1.19.19-1.95.21Z"/><rect class="cls-7" x="23.94" y=".58" width="7.59" height="28.73" rx="3.79" ry="3.79"/><path class="cls-6" d="m27.74.58c-2.1,0-3.79,1.7-3.79,3.79v2.4h7.59v-2.4c0-2.1-1.7-3.79-3.79-3.79Z"/><path class="cls-4" d="m27.74,29.89c-2.41,0-4.37-1.96-4.37-4.37V4.37c0-2.41,1.96-4.37,4.37-4.37s4.37,1.96,4.37,4.37v21.14c0,2.41-1.96,4.37-4.37,4.37Zm0-28.73c-1.77,0-3.22,1.44-3.22,3.22v21.14c0,1.77,1.44,3.22,3.22,3.22s3.22-1.44,3.22-3.22V4.37c0-1.77-1.44-3.22-3.22-3.22Z"/><rect class="cls-7" x="58.02" y=".58" width="7.59" height="28.73" rx="3.79" ry="3.79"/><path class="cls-6" d="m65.61,4.37c0-2.1-1.7-3.79-3.79-3.79s-3.79,1.7-3.79,3.79v2.4h7.59v-2.4Z"/><path class="cls-4" d="m61.81,29.89c-2.41,0-4.37-1.96-4.37-4.37V4.37c0-2.41,1.96-4.37,4.37-4.37s4.37,1.96,4.37,4.37v21.14c0,2.41-1.96,4.37-4.37,4.37Zm0-28.73c-1.77,0-3.22,1.44-3.22,3.22v21.14c0,1.77,1.44,3.22,3.22,3.22s3.22-1.44,3.22-3.22V4.37c0-1.77-1.44-3.22-3.22-3.22Z"/><path class="cls-7" d="m44.77,92.93c18.93,0,26.97-5.18,31.49-15.51,4.29-9.8,3.43-31.79,0-40.46-6.02-15.19-20.25-17.07-31.49-17.07-11.24,0-25.48,1.88-31.49,17.07-3.43,8.67-4.29,30.66,0,40.46,4.52,10.33,12.56,15.51,31.49,15.51Z"/><path class="cls-4" d="m58.06,21.86s-.09,0-.14-.02c-3.7-.93-7.88-1.37-13.14-1.37s-9.44.44-13.14,1.37c-.31.08-.62-.11-.7-.42-.08-.31.11-.62.42-.7,3.8-.96,8.06-1.4,13.42-1.4s9.63.45,13.42,1.4c.31.08.5.39.42.7-.07.26-.3.44-.56.44Z"/><path class="cls-4" d="m44.77,93.51c-9.47,0-16.27-1.25-21.42-3.95-4.77-2.5-8.14-6.28-10.6-11.91-1.99-4.55-3.07-12.17-2.95-20.9.11-8.05,1.24-15.71,2.94-20.01,2.3-5.81,6.02-10.2,11.05-13.06.28-.16.63-.06.79.22s.06.63-.22.79c-4.8,2.73-8.35,6.93-10.55,12.49-3.48,8.79-4.13,30.6,0,40.02,4.78,10.91,13.46,15.16,30.96,15.16s26.19-4.25,30.96-15.16c4.13-9.42,3.47-31.23,0-40.02-2.2-5.56-5.75-9.76-10.55-12.49-.28-.16-.37-.51-.22-.79.16-.28.51-.37.79-.22,5.03,2.86,8.75,7.26,11.05,13.06,1.7,4.3,2.83,11.96,2.94,20.01.12,8.73-.95,16.35-2.95,20.9-2.46,5.63-5.83,9.41-10.6,11.91-5.14,2.69-11.95,3.95-21.42,3.95Z"/><path class="cls-6" d="m44.77,60.46c24.63,0,25.91-9.52,25.69-14.19-.81-17.41-17.17-18.83-25.69-18.83s-24.88,1.42-25.69,18.83c-.22,4.67,1.06,14.19,25.69,14.19Z"/><path class="cls-4" d="m24.34,49.59c-.19,0-.37-.11-.45-.3-.11-.25,0-.54.26-.65l3.96-1.71c.25-.11.54,0,.65.26s0,.54-.26.65l-3.96,1.71c-.06.03-.13.04-.2.04Z"/><path class="cls-4" d="m28.26,44.54s-.08,0-.11-.01l-4.2-.98c-.27-.06-.43-.33-.37-.59.06-.27.33-.43.59-.37l4.2.98c.27.06.43.33.37.59-.05.23-.26.38-.48.38Z"/><path class="cls-4" d="m65.59,49.13c-.06,0-.12-.01-.19-.04l-4-1.62c-.25-.1-.38-.39-.27-.64.1-.25.39-.38.64-.27l4,1.62c.25.1.38.39.27.64-.08.19-.26.31-.46.31Z"/><path class="cls-4" d="m61.55,44.16c-.22,0-.42-.15-.48-.37-.07-.26.09-.53.36-.6l4.18-1.07c.26-.07.53.09.6.36.07.26-.09.53-.36.6l-4.18,1.07s-.08.02-.12.02Z"/><circle class="cls-4" cx="34.16" cy="40.86" r="1.63"/><circle class="cls-4" cx="55.59" cy="40.62" r="1.63"/><circle class="cls-5" cx="44.88" cy="41.4" r="2.02"/><path class="cls-4" d="m44.57,48.29c-2.63,0-5.41-.29-6.87-.74-.31-.09-.48-.41-.39-.72.09-.31.42-.48.72-.39,1.41.43,4.31.72,6.91.68,2.59-.03,5.49-.38,6.89-.84.3-.1.63.07.73.37s-.07.63-.37.73c-1.52.5-4.5.87-7.24.9-.13,0-.26,0-.39,0Z"/><path class="cls-1" d="m32.47,48.37c-1.79,0-3.5-.63-4.87-1.8-1.53-1.3-2.45-3.13-2.61-5.13-.16-2,.48-3.94,1.78-5.47s3.13-2.45,5.13-2.61c2-.16,3.94.48,5.47,1.78,1.53,1.3,2.45,3.13,2.61,5.13h0c.32,4.13-2.78,7.75-6.91,8.08-.2.02-.4.02-.6.02Zm.02-13.88c-.17,0-.34,0-.5.02-1.69.13-3.23.92-4.34,2.21-1.1,1.29-1.64,2.93-1.51,4.63s.92,3.23,2.21,4.34c1.29,1.1,2.94,1.64,4.63,1.51,3.5-.27,6.12-3.34,5.85-6.84-.13-1.69-.92-3.23-2.21-4.34-1.16-.99-2.61-1.53-4.12-1.53Z"/><path class="cls-1" d="m57.05,48.6c-1.79,0-3.5-.63-4.87-1.8-1.53-1.3-2.45-3.13-2.61-5.13-.16-2,.48-3.94,1.78-5.47,1.3-1.53,3.13-2.45,5.13-2.61,4.13-.32,7.75,2.78,8.08,6.91h0c.32,4.13-2.78,7.75-6.91,8.08-.2.02-.4.02-.6.02Zm.02-13.88c-.17,0-.34,0-.5.02-1.69.13-3.23.92-4.34,2.21s-1.64,2.93-1.51,4.63c.13,1.69.92,3.23,2.21,4.34,1.29,1.1,2.94,1.64,4.63,1.51,3.5-.27,6.12-3.34,5.85-6.84-.13-1.69-.92-3.23-2.21-4.34-1.16-.99-2.61-1.53-4.12-1.53Z"/><path class="cls-1" d="m39.17,39.33c-.2,0-.4-.11-.51-.3-.15-.28-.05-.63.23-.78.24-.14,6.05-3.27,11.59,0,.27.16.37.52.2.79s-.52.37-.79.2c-4.98-2.94-10.39-.01-10.45.02-.09.05-.18.07-.28.07Z"/><path class="cls-11" d="m41.55,66.65l-31.26-3.55c.73,17.78,8.77,23.16,8.77,23.16,10.45,3.12,27,3.11,35.57,2.54l-1.08-10.26-12.01-11.89Z"/><path class="cls-9" d="m45.15,89.67c-8.43,0-18.83-.64-26.25-2.86-.06-.02-.11-.04-.16-.07-.34-.23-8.29-5.75-9.03-23.62,0-.17.06-.33.18-.45.12-.11.29-.17.46-.15l31.26,3.55c.13.01.25.07.34.16l12.01,11.89c.09.09.15.22.17.35l1.08,10.26c.02.16-.03.31-.13.43-.1.12-.25.19-.4.2-2.52.17-5.83.29-9.53.29Zm-25.83-3.94c10.27,3.04,26.33,3.04,34.68,2.53l-.99-9.46-11.72-11.61-30.39-3.45c.84,15.93,7.68,21.44,8.42,21.99Z"/><path class="cls-11" d="m41.55,66.65l-31.26-3.55c.73,17.78,8.77,23.16,8.77,23.16,10.45,3.12,27,3.11,35.57,2.54l-1.08-10.26-12.01-11.89Z"/><path class="cls-4" d="m45.15,89.67c-8.43,0-18.83-.64-26.25-2.86-.06-.02-.11-.04-.16-.07-.34-.23-8.29-5.75-9.03-23.62,0-.17.06-.33.18-.45.12-.11.29-.17.46-.15l31.26,3.55c.13.01.25.07.34.16l12.01,11.89c.09.09.15.22.17.35l1.08,10.26c.02.16-.03.31-.13.43-.1.12-.25.19-.4.2-2.52.17-5.83.29-9.53.29Zm-25.83-3.94c10.27,3.04,26.33,3.04,34.68,2.53l-.99-9.46-11.72-11.61-30.39-3.45c.84,15.93,7.68,21.44,8.42,21.99Z"/><path class="cls-11" d="m48.21,66.65l31.26-3.55c-.73,17.78-8.77,23.16-8.77,23.16-10.45,3.12-25.56,3.11-34.13,2.54l1.03-10.26,10.61-11.89Z"/><path class="cls-4" d="m45.77,89.68c-3.28,0-6.42-.11-9.24-.3-.16-.01-.3-.08-.4-.2-.1-.12-.15-.28-.13-.43l1.03-10.26c.01-.12.06-.24.14-.33l10.61-11.89c.09-.11.22-.17.37-.19l31.26-3.55c.17-.02.33.04.46.15.12.11.19.28.18.45-.74,17.87-8.69,23.39-9.03,23.62-.05.03-.1.06-.16.07-7.07,2.11-16.54,2.87-25.09,2.87Zm-8.57-1.41c10.01.62,23.8.26,33.24-2.53.73-.55,7.58-6.11,8.42-21.99l-30.37,3.45-10.34,11.59-.96,9.48Z"/><circle class="cls-4" cx="41.55" cy="79.86" r="1.13"/><circle class="cls-4" cx="48.21" cy="79.86" r="1.13"/><circle class="cls-4" cx="41.55" cy="84.8" r="1.13"/><circle class="cls-4" cx="48.21" cy="84.8" r="1.13"/><path class="cls-11" d="m41.55,66.65s-2.78-1.87-5.44,7.22-33.84,3.03-33.84,3.03c0,0,4.63-15.68,9-15.43s28.18,3.06,30.28,5.17Z"/><path class="cls-2" d="m5.24,77.53s-.06,0-.09-.01c-.18-.05-.28-.23-.23-.4,3.39-12.53,7.31-15.63,7.48-15.75.15-.11.35-.08.46.06.11.14.08.35-.06.46-.05.04-3.92,3.15-7.24,15.4-.04.15-.17.24-.32.24Z"/><path class="cls-2" d="m11.6,78.26s-.04,0-.06,0c-.18-.03-.3-.2-.27-.38,1.81-10.06,6.79-15.81,6.84-15.87.12-.14.33-.15.47-.03.14.12.15.33.03.47-.05.06-4.9,5.68-6.68,15.55-.03.16-.17.27-.32.27Z"/><path class="cls-2" d="m18.1,78.88s-.03,0-.05,0c-.18-.03-.31-.19-.28-.37,1.34-9.39,5.84-15.66,5.88-15.72.11-.15.31-.18.46-.07.15.11.18.31.07.46-.04.06-4.45,6.2-5.76,15.42-.02.16-.16.28-.33.28Z"/><path class="cls-2" d="m24.23,78.59s-.04,0-.05,0c-.18-.03-.3-.2-.27-.38,1.75-10.69,5.21-14.41,5.35-14.57.13-.13.33-.14.47-.01.13.13.14.33.01.47-.03.04-3.47,3.77-5.18,14.22-.03.16-.17.28-.33.28Z"/><path class="cls-2" d="m30.31,77.87s-.02,0-.03,0c-.18-.02-.31-.18-.3-.36.77-7.61,4.14-12.79,4.18-12.84.1-.15.31-.19.46-.09s.19.31.09.46c-.03.05-3.32,5.1-4.07,12.54-.02.17-.16.3-.33.3Z"/><path class="cls-2" d="m36.56,72.77s-.03,0-.04,0l-31.32-3.59c-.18-.02-.31-.18-.29-.37.02-.18.19-.31.37-.29l31.32,3.59c.18.02.31.18.29.37-.02.17-.16.29-.33.29Z"/><path class="cls-2" d="m38.77,68.2s-.03,0-.04,0l-31.12-3.57c-.18-.02-.31-.18-.29-.37.02-.18.19-.31.37-.29l31.12,3.57c.18.02.31.18.29.37-.02.17-.16.29-.33.29Z"/><path class="cls-2" d="m33.55,77.15s-.02,0-.03,0l-30.25-3.05c-.18-.02-.31-.18-.3-.36.02-.18.18-.31.36-.3l30.25,3.05c.18.02.31.18.3.36-.02.17-.16.3-.33.3Z"/><path class="cls-4" d="m21.5,79.46c-8.95,0-18.62-1.84-19.34-1.98-.16-.03-.3-.13-.38-.27s-.11-.31-.06-.46c.48-1.63,4.81-15.85,9.46-15.85.04,0,.09,0,.13,0,3.6.21,28.3,2.98,30.65,5.34.21.21.22.55.04.77-.19.22-.51.28-.75.12-.03-.02-.31-.16-.77.02-.76.3-2.27,1.6-3.81,6.87-1.24,4.23-7.97,5.42-15.17,5.42Zm-18.49-3c8.96,1.66,30.54,4.13,32.55-2.75,1.16-3.96,2.5-6.43,4.01-7.37-5.7-1.79-24.06-4.04-28.32-4.28-2.77-.16-6.42,8.51-8.23,14.41Z"/><path class="cls-11" d="m48.21,66.65s2.78-1.87,5.44,7.22,33.84,3.03,33.84,3.03c0,0-4.63-15.68-9-15.43s-28.18,3.06-30.28,5.17Z"/><path class="cls-2" d="m84.52,77.53c-.15,0-.28-.1-.32-.24-3.32-12.26-7.2-15.37-7.24-15.4-.14-.11-.17-.32-.06-.46.11-.14.32-.17.46-.06.17.13,4.08,3.22,7.48,15.75.05.18-.06.36-.23.4-.03,0-.06.01-.09.01Z"/><path class="cls-2" d="m78.16,78.26c-.16,0-.3-.11-.32-.27-1.78-9.88-6.63-15.49-6.68-15.55-.12-.14-.11-.35.03-.47.14-.12.35-.11.47.03.05.06,5.02,5.81,6.84,15.87.03.18-.09.35-.27.38-.02,0-.04,0-.06,0Z"/><path class="cls-2" d="m71.66,78.88c-.16,0-.3-.12-.33-.28-1.31-9.22-5.72-15.36-5.76-15.42-.11-.15-.07-.35.07-.46.15-.11.35-.07.46.07.05.06,4.54,6.33,5.88,15.72.03.18-.1.35-.28.37-.02,0-.03,0-.05,0Z"/><path class="cls-2" d="m65.53,78.59c-.16,0-.3-.11-.33-.28-1.71-10.45-5.15-14.18-5.18-14.22-.13-.13-.12-.34.01-.47.13-.13.34-.12.47.01.15.15,3.61,3.88,5.35,14.57.03.18-.09.35-.27.38-.02,0-.04,0-.05,0Z"/><path class="cls-2" d="m59.45,77.87c-.17,0-.31-.13-.33-.3-.75-7.44-4.04-12.49-4.07-12.54-.1-.15-.06-.36.09-.46.15-.1.36-.06.46.09.03.05,3.41,5.22,4.18,12.84.02.18-.11.34-.3.36-.01,0-.02,0-.03,0Z"/><path class="cls-2" d="m53.19,72.77c-.17,0-.31-.12-.33-.29-.02-.18.11-.34.29-.37l31.32-3.59c.18-.02.34.11.37.29.02.18-.11.34-.29.37l-31.32,3.59s-.03,0-.04,0Z"/><path class="cls-2" d="m50.99,68.2c-.17,0-.31-.12-.33-.29-.02-.18.11-.34.29-.37l31.12-3.57c.18-.02.34.11.37.29.02.18-.11.34-.29.37l-31.12,3.57s-.03,0-.04,0Z"/><path class="cls-2" d="m56.21,77.15c-.17,0-.31-.13-.33-.3-.02-.18.11-.34.3-.36l30.25-3.05c.18-.02.34.11.36.3.02.18-.11.34-.3.36l-30.25,3.05s-.02,0-.03,0Z"/><path class="cls-4" d="m68.26,79.46c-7.2,0-13.93-1.19-15.17-5.42-1.54-5.27-3.05-6.57-3.81-6.87-.47-.19-.76-.03-.77-.02-.25.17-.57.11-.76-.12-.19-.23-.17-.57.04-.78,2.35-2.37,27.05-5.14,30.65-5.34,4.71-.26,9.1,14.19,9.59,15.84.05.16.02.32-.06.46-.08.14-.22.24-.38.27-.72.14-10.39,1.98-19.34,1.98Zm-18.07-13.12c1.5.94,2.85,3.41,4.01,7.37,2.01,6.87,23.59,4.41,32.55,2.75-1.81-5.9-5.47-14.55-8.23-14.41-4.27.24-22.63,2.49-28.32,4.28Z"/><path class="cls-11" d="m44.88,19.54c18.45,0,24.29,6.78,24.29,6.78,0,0-3.61,5.76-9.84,3.59s-11.05-2.13-14.45-2.13c-3.4,0-8.43-.04-14.66,2.13s-9.84-3.59-9.84-3.59c0,0,6.05-6.78,24.51-6.78Z"/><path class="cls-4" d="m62.08,30.97c-.91,0-1.89-.15-2.94-.52-6.02-2.1-10.68-2.1-14.06-2.1h-.4c-3.3,0-8.25,0-14.27,2.1-6.59,2.3-10.48-3.77-10.52-3.83-.14-.22-.11-.5.06-.69.25-.28,6.44-6.97,24.94-6.97s24.49,6.69,24.73,6.98c.17.19.19.47.05.68-.03.05-2.79,4.35-7.58,4.35Zm-16.79-3.77c3.46,0,8.15.04,14.23,2.16,4.87,1.7,8-1.78,8.9-2.98-1.43-1.3-7.91-6.27-23.54-6.27s-22.27,4.97-23.75,6.27c.9,1.2,4.03,4.67,8.9,2.97,6.21-2.16,11.29-2.16,14.65-2.16h.61Z"/></g></svg>